:SAMPLES-PER-SECOND 30
:FULLY-SPECIFIED
:DEGREES
360
root  52.6286 37.9069 -0.48374 85.0989 85.0072 91.6782
RightUpLeg  -20.2168 -6.04575 -5.20395
RightLeg  3.30892 9.44412 -0.543534
RightFoot  -1.79248 -0.440805 5.1301
RightToes  -3.0268e-009 0 -3.6325e-017
Spine  7.65879 -0.301528 -7.16769
Spine1  6.05655 -1.32293 2.65437
HEad  -21.1011 0.613992 -0.668198
LeftShoulder1  -1.09262 6.10447 -35.7794
LeftArm  -1.63088 2.0863 -39.324
LeftForeArm  29.5055 -51.6176 -11.8395
LeftHand  -0.00711423 7.20513 1.8937
RightShoulder  -1.53064 -7.25491 34.2648
RightArm  14.7273 -26.4713 33.7734
RightForeArm  21.1142 7.61913 5.66049
RightHand  -0.0911364 2.37381 -1.56155
LeftUpLeg  14.204 6.56447 -4.97352
LeftLeg  13.5103 -0.492415 -0.138437
LeftFoot  -19.2282 0.3638 3.62559
LeftToes  2.52475e-009 -1.26109e-010 3.16044e-011
361
root  53.8542 37.5849 -0.381224 100.078 85.1761 105.998
RightUpLeg  -21.0878 -5.2303 -5.23668
RightLeg  8.90982 4.47857 -0.0395139
RightFoot  -1.19653 -0.343388 3.73322
RightToes  -3.0268e-009 0 -3.6325e-017
Spine  6.74603 -0.533484 -7.02369
Spine1  5.91495 -1.77762 3.81232
HEad  -20.9015 0.0682822 -1.17167
LeftShoulder1  -1.12084 6.12045 -36.5809
LeftArm  -0.0571729 3.16924 -39.2812
LeftForeArm  29.6584 -49.8755 -11.0454
LeftHand  -0.0119699 6.72782 1.88751
RightShoulder  -1.52691 -7.28637 33.8424
RightArm  15.8014 -23.5556 34.0252
RightForeArm  21.0642 8.06658 6.23607
RightHand  -0.066944 2.61826 -1.17647
LeftUpLeg  14.7257 5.85344 -4.44556
LeftLeg  15.2908 -1.0712 0.153503
LeftFoot  -21.6684 0.390588 2.87413
LeftToes  2.52475e-009 -1.26109e-010 3.16044e-011
362
root  55.0742 37.4172 -0.270376 122.828 85.2514 128.264
RightUpLeg  -21.2905 -5.77251 -4.59113
RightLeg  13.0589 1.71376 0.150293
RightFoot  1.70545 -0.177143 1.83973
RightToes  -3.0268e-009 0 -3.6325e-017
Spine  6.29713 -0.936225 -6.07786
Spine1  5.67012 -2.42486 5.15245
HEad  -20.7662 0.0789831 -1.63068
LeftShoulder1  -1.1741 6.22461 -36.8704
LeftArm  2.88304 4.05209 -39.3168
LeftForeArm  28.9449 -46.3159 -9.65613
LeftHand  -0.0226008 5.99657 1.62901
RightShoulder  -1.59898 -7.47094 33.7684
RightArm  16.3644 -20.0326 34.3689
RightForeArm  20.2772 8.38905 6.6094
RightHand  -0.0777177 2.75593 -1.32416
LeftUpLeg  15.5865 3.81588 -3.55115
LeftLeg  16.4646 -1.08311 0.315165
LeftFoot  -22.6878 0.313651 1.77755
LeftToes  2.52475e-009 -1.26109e-010 3.16044e-011
363
root  56.3341 37.3458 -0.140427 143.764 85.4813 149.03
RightUpLeg  -21.5537 -7.14175 -3.02009
RightLeg  15.6827 1.95861 0.513374
RightFoot  7.61051 0.126438 -0.53028
RightToes  -3.0268e-009 0 -3.6325e-017
Spine  6.63808 -1.00132 -3.8084
Spine1  4.75964 -2.46535 5.79924
HEad  -21.3894 -0.972347 -1.53111
LeftShoulder1  -1.37944 6.65222 -37.5095
LeftArm  7.07835 4.56059 -39.2193
LeftForeArm  27.782 -41.1237 -7.9803
LeftHand  -0.0182796 6.18966 1.86867
RightShoulder  -1.7721 -7.84037 34.3446
RightArm  17.3471 -15.709 34.0189
RightForeArm  19.144 8.52813 7.0623
RightHand  -0.0749344 2.15943 -1.32991
LeftUpLeg  16.5031 1.87315 -1.77498
LeftLeg  18.2738 -1.51527 -0.188431
LeftFoot  -22.9104 0.0559397 -0.773452
LeftToes  2.52475e-009 -1.26109e-010 3.16044e-011
364
root  57.6578 37.1822 -0.0138755 162.498 86.6377 168.128
RightUpLeg  -22.11 -5.85432 -1.15146
RightLeg  21.2939 1.66575 0.49317
RightFoot  5.78144 0.356772 -2.11377
RightToes  -3.0268e-009 0 -3.6325e-017
Spine  5.29997 -0.848748 -0.689248
Spine1  6.36532 -1.99043 5.40832
HEad  -21.6621 -0.831517 -2.00414
LeftShoulder1  -1.42977 6.7128 -38.2164
LeftArm  11.537 4.12626 -39.2277
LeftForeArm  24.6421 -33.6039 -6.03058
LeftHand  -0.0178796 7.22097 1.27813
RightShoulder  -1.52738 -7.29188 33.8008
RightArm  15.4903 -10.1213 36.038
RightForeArm  18.8799 6.63187 7.05082
RightHand  -0.102404 2.85977 -1.66346
LeftUpLeg  17.0253 1.40577 0.457524
LeftLeg  22.4916 -2.43734 -0.788589
LeftFoot  -22.8972 -0.296179 -4.29225
LeftToes  2.52475e-009 -1.26109e-010 3.16044e-011
365
root  58.8477 37.0917 0.140603 -176.369 87.7452 -170.554
RightUpLeg  -21.84 -4.44974 0.469635
RightLeg  24.6784 1.23034 0.386773
RightFoot  3.95059 0.534268 -3.75055
RightToes  -3.0268e-009 0 -3.6325e-017
Spine  5.47546 -0.69819 2.24698
Spine1  6.28114 -1.23554 4.46313
HEad  -22.3309 -0.432396 -1.91379
LeftShoulder1  -1.4646 6.8182 -37.8577
LeftArm  14.6931 5.34365 -39.8338
LeftForeArm  21.9703 -26.158 -4.41605
LeftHand  -0.0546885 8.04714 -0.387845
RightShoulder  -1.35242 -6.88695 33.426
RightArm  14.2547 -4.51953 38.3809
RightForeArm  19.0691 5.25989 7.00966
RightHand  -0.0996477 2.84185 -1.62567
LeftUpLeg  15.6886 2.19754 2.89399
LeftLeg  29.1479 -4.27439 -2.28163
LeftFoot  -20.1988 -0.526452 -8.5547
LeftToes  2.52475e-009 -1.26109e-010 3.16044e-011
